<?xml version="1.0" encoding="utf-8"?>
<?xml-stylesheet type="text/xsl" href="rss1.xsl"?>
<rss version="2.0" xmlns:atom="http://www.w3.org/2005/Atom" xmlns:content="http://purl.org/rss/1.0/modules/content/" xmlns:dc="http://purl.org/dc/elements/1.1/" xmlns:media="http://search.yahoo.com/mrss/">
<channel>
 <title>Getty</title>
 <link>http://www.gettyimg.com/</link>
 <atom:link href="http://www.gettyimg.com/" rel="self" type="application/rss+xml" />

 
                <item>
                <title><![CDATA[【HD Live Performances】HDTV - NRJ Music Awards 2023 HDTV H264 1080i DD2.0-ilya2129]]></title>
                <link><![CDATA[https://sharemania.us/threads/nrj-music-awards-2023-hdtv-h264-1080i-dd2-0-ilya2129.232023/]]></link>
                <description><![CDATA[<article>
<blockquote class="messageText SelectQuoteContainer ugc baseHtml">
<div style="text-align: center"><img src="https://i120.fastpic.org/big/2022/1119/9d/84ba6dd2cc0d80ab2d34693e1ad30e9d.png?r=1" class="bbCodeImage LbImage" alt="[​IMG]" data-url="https://i120.fastpic.org/big/2022/1119/9d/84ba6dd2cc0d80ab2d34693e1ad30e9d.png?r=1" style=""><br>
<br>
<a href="https://postimg.cc/PCBPzMbQ" target="_blank" class="externalLink" rel="nofollow"><img src="https://i.postimg.cc/PCBPzMbQ/vlcsnap-2023-11-11-11h16m00s136.png" class="bbCodeImage LbImage" alt="[​IMG]" data-url="https://i.postimg.cc/PCBPzMbQ/vlcsnap-2023-11-11-11h16m00s136.png"></a> <a href="https://postimg.cc/hz0vnWk2" target="_blank" class="externalLink" rel="nofollow"><img src="https://i.postimg.cc/hz0vnWk2/vlcsnap-2023-11-11-11h16m04s035.png" class="bbCodeImage LbImage" alt="[​IMG]" data-url="https://i.postimg.cc/hz0vnWk2/vlcsnap-2023-11-11-11h16m04s035.png"></a> <a href="https://postimg.cc/Vrwv2LVS" target="_blank" class="externalLink" rel="nofollow"><img src="https://i.postimg.cc/Vrwv2LVS/vlcsnap-2023-11-11-11h16m06s653.png" class="bbCodeImage LbImage" alt="[​IMG]" data-url="https://i.postimg.cc/Vrwv2LVS/vlcsnap-2023-11-11-11h16m06s653.png"></a> <a href="https://postimg.cc/XXVX8q5m" target="_blank" class="externalLink" rel="nofollow"><img src="https://i.postimg.cc/XXVX8q5m/vlcsnap-2023-11-11-11h16m09s091.png" class="bbCodeImage LbImage" alt="[​IMG]" data-url="https://i.postimg.cc/XXVX8q5m/vlcsnap-2023-11-11-11h16m09s091.png"></a> <a href="https://postimg.cc/8stcnGB5" target="_blank" class="externalLink" rel="nofollow"><img src="https://i.postimg.cc/8stcnGB5/vlcsnap-2023-11-11-11h16m12s901.png" class="bbCodeImage LbImage" alt="[​IMG]" data-url="https://i.postimg.cc/8stcnGB5/vlcsnap-2023-11-11-11h16m12s901.png"></a> <a href="https://postimg.cc/BPQ6Q7s4" target="_blank" class="externalLink" rel="nofollow"><img src="https://i.postimg.cc/BPQ6Q7s4/vlcsnap-2023-11-11-11h16m15s373.png" class="bbCodeImage LbImage" alt="[​IMG]" data-url="https://i.postimg.cc/BPQ6Q7s4/vlcsnap-2023-11-11-11h16m15s373.png"></a> <br>
<br>
Måneskin - Beggin’, Baby said, The Loneliest<br>
Mika - C’est la vie<br>
Loreen - Is it love, Tattoo<br>
Santa - Popcorn salé<br>
Slimane et Claudio Caupéo - Chez toi<br>
Louane - Medley a cappella<br>
Nuit Incolore - Dépassé<br>
Gaëtan Roussel et Isabelle Adjani - Les courants d'air<br>
Vitaa - Je n'oublie pas<br>
Jain - Makeba<br>
Biglfo et Oli et Mc Solaar - Bons élèves<br>
Paul Russell - Lil Boo Thang<br>
Vianney et Kendji Girac - Le feu<br>
Vianney et Zazie - Comment on fait<br>
Pierre de Maere - Enfant de<br>
Bianca Costa - Olé Olé<br>
Chiloo - Au bord de la mer<br>
Louane - Secret<br>
​</div><br>
<div class="bbCodeBlock bbCodeCode">
<div class="type">Code:</div>
<pre>General
ID                                       : 1 (0x1)
Complete name                            : D:\NRJ Music Awards 2023 HDTV H264 1080i DD2.0-ilya2129.ts
Format                                   : MPEG-TS
File size                                : 7.05 GiB
Duration                                 : 2 h 33 min
Overall bit rate mode                    : Variable
Overall bit rate                         : 6 561 kb/s
Frame rate                               : 25.000 FPS

Video
ID                                       : 302 (0x12E)
Menu ID                                  : 1 (0x1)
Format                                   : AVC
Format/Info                              : Advanced Video Codec
Format profile                           : High@L4
Format settings                          : CABAC / 4 Ref Frames
Format settings, CABAC                   : Yes
Format settings, Reference frames        : 4 frames
Codec ID                                 : 27
Duration                                 : 2 h 33 min
Bit rate                                 : 5 882 kb/s
Width                                    : 1 920 pixels
Height                                   : 1 080 pixels
Display aspect ratio                     : 16:9
Frame rate                               : 25.000 FPS
Standard                                 : Component
Color space                              : YUV
Chroma subsampling                       : 4:2:0
Bit depth                                : 8 bits
Scan type                                : MBAFF
Scan type, store method                  : Interleaved fields
Scan order                               : Top Field First
Bits/(Pixel*Frame)                       : 0.113
Stream size                              : 6.32 GiB (90%)
Color range                              : Limited
Color primaries                          : BT.709
Transfer characteristics                 : BT.709
Matrix coefficients                      : BT.709

Audio #1
ID                                       : 303 (0x12F)
Menu ID                                  : 1 (0x1)
Format                                   : E-AC-3
Format/Info                              : Enhanced AC-3
Commercial name                          : Dolby Digital Plus
Format settings                          : Dolby Surround
Codec ID                                 : 6
Duration                                 : 2 h 33 min
Bit rate mode                            : Constant
Bit rate                                 : 128 kb/s
Channel(s)                               : 2 channels
Channel layout                           : L R
Sampling rate                            : 48.0 kHz
Frame rate                               : 31.250 FPS (1536 SPF)
Compression mode                         : Lossy
Delay relative to video                  : -160 ms
Stream size                              : 141 MiB (2%)
Language                                 : French
Service kind                             : Complete Main

Audio #2
ID                                       : 304 (0x130)
Menu ID                                  : 1 (0x1)
Format                                   : E-AC-3
Format/Info                              : Enhanced AC-3
Commercial name                          : Dolby Digital Plus
Format settings                          : Dolby Surround
Codec ID                                 : 6
Duration                                 : 2 h 33 min
Bit rate mode                            : Constant
Bit rate                                 : 128 kb/s
Channel(s)                               : 2 channels
Channel layout                           : L R
Sampling rate                            : 48.0 kHz
Frame rate                               : 31.250 FPS (1536 SPF)
Compression mode                         : Lossy
Delay relative to video                  : -160 ms
Stream size                              : 141 MiB (2%)
Language                                 : qaa
Service kind                             : Complete Main

Audio #3
ID                                       : 305 (0x131)
Menu ID                                  : 1 (0x1)
Format                                   : E-AC-3
Format/Info                              : Enhanced AC-3
Commercial name                          : Dolby Digital Plus
Format settings                          : Dolby Surround
Codec ID                                 : 6
Duration                                 : 2 h 33 min
Bit rate mode                            : Constant
Bit rate                                 : 96.0 kb/s
Channel(s)                               : 2 channels
Channel layout                           : L R
Sampling rate                            : 48.0 kHz
Frame rate                               : 31.250 FPS (1536 SPF)
Compression mode                         : Lossy
Delay relative to video                  : -160 ms
Stream size                              : 106 MiB (1%)
Language                                 : qad
Service kind                             : Complete Main

Text
ID                                       : 309 (0x135)
Menu ID                                  : 1 (0x1)
Format                                   : DVB Subtitle
Codec ID                                 : 6
Duration                                 : 2 h 33 min
Delay relative to video                  : 8 s 400 ms
Language                                 : French
</pre>
</div><div style="text-align: center">
<div class="bbCodeBlock bbCodeVfcHH HiddenContent">
<div class="attribution type">Hidden Content:</div>
<blockquote>You must reply before you can see the hidden data contained here.</blockquote>
</div></div>
<div class="messageTextEndMarker">&nbsp;</div>
</blockquote>
</article>]]></description>
                <author><![CDATA[ilya2129]]></author>
                </item>

                </channel></rss>